<svg width="200" height="200" viewBox="0 0 200 200" fill="none" xmlns="http://www.w3.org/2000/svg">
<mask id="mask0_47_1461" style="mask-type:alpha" maskUnits="userSpaceOnUse" x="0" y="0" width="200" height="200">
<g clip-path="url(#clip0_47_1461)">
<circle cx="27" cy="3" r="3" fill="#648CBF"/>
<circle cx="39" cy="3" r="3" fill="#648CBF"/>
<circle cx="51" cy="3" r="3" fill="#648CBF"/>
<circle cx="63" cy="3" r="3" fill="#648CBF"/>
<circle cx="75" cy="3" r="3" fill="#648CBF"/>
<circle cx="87" cy="3" r="3" fill="#648CBF"/>
<circle cx="99" cy="3" r="3" fill="#648CBF"/>
<circle cx="111" cy="3" r="3" fill="#648CBF"/>
<circle cx="123" cy="3" r="3" fill="#648CBF"/>
<circle cx="147" cy="3" r="3" fill="#648CBF"/>
<circle cx="159" cy="3" r="3" fill="#648CBF"/>
<circle cx="171" cy="3" r="3" fill="#648CBF"/>
<circle cx="183" cy="3" r="3" fill="#648CBF"/>
<circle cx="195" cy="3" r="3" fill="#648CBF"/>
<circle cx="15" cy="15" r="3" fill="#648CBF"/>
<circle cx="27" cy="15" r="3" fill="#648CBF"/>
<circle cx="39" cy="15" r="3" fill="#648CBF"/>
<circle cx="51" cy="15" r="3" fill="#648CBF"/>
<circle cx="63" cy="15" r="3" fill="#648CBF"/>
<circle cx="75" cy="15" r="3" fill="#648CBF"/>
<circle cx="87" cy="15" r="3" fill="#648CBF"/>
<circle cx="99" cy="15" r="3" fill="#648CBF"/>
<circle cx="111" cy="15" r="3" fill="#648CBF"/>
<circle cx="123" cy="15" r="3" fill="#648CBF"/>
<circle cx="135" cy="15" r="3" fill="#648CBF"/>
<circle cx="159" cy="15" r="3" fill="#648CBF"/>
<circle cx="171" cy="15" r="3" fill="#648CBF"/>
<circle cx="183" cy="15" r="3" fill="#648CBF"/>
<circle cx="195" cy="15" r="3" fill="#648CBF"/>
<circle cx="3" cy="27" r="3" fill="#648CBF"/>
<circle cx="15" cy="27" r="3" fill="#648CBF"/>
<circle cx="27" cy="27" r="3" fill="#648CBF"/>
<circle cx="39" cy="27" r="3" fill="#648CBF"/>
<circle cx="51" cy="27" r="3" fill="#648CBF"/>
<circle cx="63" cy="27" r="3" fill="#648CBF"/>
<circle cx="75" cy="27" r="3" fill="#648CBF"/>
<circle cx="87" cy="27" r="3" fill="#648CBF"/>
<circle cx="99" cy="27" r="3" fill="#648CBF"/>
<circle cx="111" cy="27" r="3" fill="#648CBF"/>
<circle cx="123" cy="27" r="3" fill="#648CBF"/>
<circle cx="135" cy="27" r="3" fill="#648CBF"/>
<circle cx="159" cy="27" r="3" fill="#648CBF"/>
<circle cx="171" cy="27" r="3" fill="#648CBF"/>
<circle cx="183" cy="27" r="3" fill="#648CBF"/>
<circle cx="195" cy="27" r="3" fill="#648CBF"/>
<circle cx="15" cy="39" r="3" fill="#648CBF"/>
<circle cx="27" cy="39" r="3" fill="#648CBF"/>
<circle cx="39" cy="39" r="3" fill="#648CBF"/>
<circle cx="51" cy="39" r="3" fill="#648CBF"/>
<circle cx="63" cy="39" r="3" fill="#648CBF"/>
<circle cx="75" cy="39" r="3" fill="#648CBF"/>
<circle cx="87" cy="39" r="3" fill="#648CBF"/>
<circle cx="99" cy="39" r="3" fill="#648CBF"/>
<circle cx="111" cy="39" r="3" fill="#648CBF"/>
<circle cx="123" cy="39" r="3" fill="#648CBF"/>
<circle cx="135" cy="39" r="3" fill="#648CBF"/>
<circle cx="147" cy="39" r="3" fill="#648CBF"/>
<circle cx="159" cy="39" r="3" fill="#648CBF"/>
<circle cx="171" cy="39" r="3" fill="#648CBF"/>
<circle cx="183" cy="39" r="3" fill="#648CBF"/>
<circle cx="195" cy="39" r="3" fill="#648CBF"/>
<circle cx="15" cy="51" r="3" fill="#648CBF"/>
<circle cx="27" cy="51" r="3" fill="#648CBF"/>
<circle cx="39" cy="51" r="3" fill="#648CBF"/>
<circle cx="51" cy="51" r="3" fill="#648CBF"/>
<circle cx="63" cy="51" r="3" fill="#648CBF"/>
<circle cx="75" cy="51" r="3" fill="#648CBF"/>
<circle cx="87" cy="51" r="3" fill="#648CBF"/>
<circle cx="99" cy="51" r="3" fill="#648CBF"/>
<circle cx="111" cy="51" r="3" fill="#648CBF"/>
<circle cx="123" cy="51" r="3" fill="#648CBF"/>
<circle cx="135" cy="51" r="3" fill="#648CBF"/>
<circle cx="171" cy="51" r="3" fill="#648CBF"/>
<circle cx="183" cy="51" r="3" fill="#648CBF"/>
<circle cx="195" cy="51" r="3" fill="#648CBF"/>
<circle cx="3" cy="63" r="3" fill="#648CBF"/>
<circle cx="15" cy="63" r="3" fill="#648CBF"/>
<circle cx="27" cy="63" r="3" fill="#648CBF"/>
<circle cx="39" cy="63" r="3" fill="#648CBF"/>
<circle cx="51" cy="63" r="3" fill="#648CBF"/>
<circle cx="63" cy="63" r="3" fill="#648CBF"/>
<circle cx="75" cy="63" r="3" fill="#648CBF"/>
<circle cx="87" cy="63" r="3" fill="#648CBF"/>
<circle cx="99" cy="63" r="3" fill="#648CBF"/>
<circle cx="111" cy="63" r="3" fill="#648CBF"/>
<circle cx="123" cy="63" r="3" fill="#648CBF"/>
<circle cx="135" cy="63" r="3" fill="#648CBF"/>
<circle cx="147" cy="63" r="3" fill="#648CBF"/>
<circle cx="159" cy="63" r="3" fill="#648CBF"/>
<circle cx="171" cy="63" r="3" fill="#648CBF"/>
<circle cx="183" cy="63" r="3" fill="#648CBF"/>
<circle cx="195" cy="63" r="3" fill="#648CBF"/>
<circle cx="3" cy="75" r="3" fill="#648CBF"/>
<circle cx="15" cy="75" r="3" fill="#648CBF"/>
<circle cx="27" cy="75" r="3" fill="#648CBF"/>
<circle cx="39" cy="75" r="3" fill="#648CBF"/>
<circle cx="51" cy="75" r="3" fill="#648CBF"/>
<circle cx="63" cy="75" r="3" fill="#648CBF"/>
<circle cx="75" cy="75" r="3" fill="#648CBF"/>
<circle cx="87" cy="75" r="3" fill="#648CBF"/>
<circle cx="99" cy="75" r="3" fill="#648CBF"/>
<circle cx="111" cy="75" r="3" fill="#648CBF"/>
<circle cx="123" cy="75" r="3" fill="#648CBF"/>
<circle cx="135" cy="75" r="3" fill="#648CBF"/>
<circle cx="147" cy="75" r="3" fill="#648CBF"/>
<circle cx="159" cy="75" r="3" fill="#648CBF"/>
<circle cx="171" cy="75" r="3" fill="#648CBF"/>
<circle cx="195" cy="75" r="3" fill="#648CBF"/>
<circle cx="3" cy="87" r="3" fill="#648CBF"/>
<circle cx="15" cy="87" r="3" fill="#648CBF"/>
<circle cx="27" cy="87" r="3" fill="#648CBF"/>
<circle cx="39" cy="87" r="3" fill="#648CBF"/>
<circle cx="51" cy="87" r="3" fill="#648CBF"/>
<circle cx="63" cy="87" r="3" fill="#648CBF"/>
<circle cx="75" cy="87" r="3" fill="#648CBF"/>
<circle cx="87" cy="87" r="3" fill="#648CBF"/>
<circle cx="99" cy="87" r="3" fill="#648CBF"/>
<circle cx="111" cy="87" r="3" fill="#648CBF"/>
<circle cx="123" cy="87" r="3" fill="#648CBF"/>
<circle cx="135" cy="87" r="3" fill="#648CBF"/>
<circle cx="147" cy="87" r="3" fill="#648CBF"/>
<circle cx="159" cy="87" r="3" fill="#648CBF"/>
<circle cx="171" cy="87" r="3" fill="#648CBF"/>
<circle cx="183" cy="87" r="3" fill="#648CBF"/>
<circle cx="3" cy="99" r="3" fill="#648CBF"/>
<circle cx="15" cy="99" r="3" fill="#648CBF"/>
<circle cx="27" cy="99" r="3" fill="#648CBF"/>
<circle cx="39" cy="99" r="3" fill="#648CBF"/>
<circle cx="51" cy="99" r="3" fill="#648CBF"/>
<circle cx="63" cy="99" r="3" fill="#648CBF"/>
<circle cx="75" cy="99" r="3" fill="#648CBF"/>
<circle cx="87" cy="99" r="3" fill="#648CBF"/>
<circle cx="123" cy="99" r="3" fill="#648CBF"/>
<circle cx="135" cy="99" r="3" fill="#648CBF"/>
<circle cx="147" cy="99" r="3" fill="#648CBF"/>
<circle cx="159" cy="99" r="3" fill="#648CBF"/>
<circle cx="171" cy="99" r="3" fill="#648CBF"/>
<circle cx="183" cy="99" r="3" fill="#648CBF"/>
<circle cx="3" cy="111" r="3" fill="#648CBF"/>
<circle cx="27" cy="111" r="3" fill="#648CBF"/>
<circle cx="39" cy="111" r="3" fill="#648CBF"/>
<circle cx="51" cy="111" r="3" fill="#648CBF"/>
<circle cx="63" cy="111" r="3" fill="#648CBF"/>
<circle cx="75" cy="111" r="3" fill="#648CBF"/>
<circle cx="87" cy="111" r="3" fill="#648CBF"/>
<circle cx="147" cy="111" r="3" fill="#648CBF"/>
<circle cx="159" cy="111" r="3" fill="#648CBF"/>
<circle cx="171" cy="111" r="3" fill="#648CBF"/>
<circle cx="195" cy="111" r="3" fill="#648CBF"/>
<circle cx="3" cy="123" r="3" fill="#648CBF"/>
<circle cx="27" cy="123" r="3" fill="#648CBF"/>
<circle cx="39" cy="123" r="3" fill="#648CBF"/>
<circle cx="51" cy="123" r="3" fill="#648CBF"/>
<circle cx="63" cy="123" r="3" fill="#648CBF"/>
<circle cx="75" cy="123" r="3" fill="#648CBF"/>
<circle cx="87" cy="123" r="3" fill="#648CBF"/>
<circle cx="99" cy="123" r="3" fill="#648CBF"/>
<circle cx="183" cy="123" r="3" fill="#648CBF"/>
<circle cx="195" cy="123" r="3" fill="#648CBF"/>
<circle cx="3" cy="135" r="3" fill="#648CBF"/>
<circle cx="15" cy="135" r="3" fill="#648CBF"/>
<circle cx="27" cy="135" r="3" fill="#648CBF"/>
<circle cx="39" cy="135" r="3" fill="#648CBF"/>
<circle cx="51" cy="135" r="3" fill="#648CBF"/>
<circle cx="87" cy="135" r="3" fill="#648CBF"/>
<circle cx="99" cy="135" r="3" fill="#648CBF"/>
<circle cx="111" cy="135" r="3" fill="#648CBF"/>
<circle cx="123" cy="135" r="3" fill="#648CBF"/>
<circle cx="135" cy="135" r="3" fill="#648CBF"/>
<circle cx="171" cy="135" r="3" fill="#648CBF"/>
<circle cx="183" cy="135" r="3" fill="#648CBF"/>
<circle cx="195" cy="135" r="3" fill="#648CBF"/>
<circle cx="3" cy="147" r="3" fill="#648CBF"/>
<circle cx="15" cy="147" r="3" fill="#648CBF"/>
<circle cx="63" cy="147" r="3" fill="#648CBF"/>
<circle cx="87" cy="147" r="3" fill="#648CBF"/>
<circle cx="99" cy="147" r="3" fill="#648CBF"/>
<circle cx="111" cy="147" r="3" fill="#648CBF"/>
<circle cx="123" cy="147" r="3" fill="#648CBF"/>
<circle cx="135" cy="147" r="3" fill="#648CBF"/>
<circle cx="159" cy="147" r="3" fill="#648CBF"/>
<circle cx="171" cy="147" r="3" fill="#648CBF"/>
<circle cx="183" cy="147" r="3" fill="#648CBF"/>
<circle cx="195" cy="147" r="3" fill="#648CBF"/>
<circle cx="3" cy="159" r="3" fill="#648CBF"/>
<circle cx="15" cy="159" r="3" fill="#648CBF"/>
<circle cx="27" cy="159" r="3" fill="#648CBF"/>
<circle cx="39" cy="159" r="3" fill="#648CBF"/>
<circle cx="51" cy="159" r="3" fill="#648CBF"/>
<circle cx="63" cy="159" r="3" fill="#648CBF"/>
<circle cx="87" cy="159" r="3" fill="#648CBF"/>
<circle cx="99" cy="159" r="3" fill="#648CBF"/>
<circle cx="111" cy="159" r="3" fill="#648CBF"/>
<circle cx="123" cy="159" r="3" fill="#648CBF"/>
<circle cx="135" cy="159" r="3" fill="#648CBF"/>
<circle cx="159" cy="159" r="3" fill="#648CBF"/>
<circle cx="171" cy="159" r="3" fill="#648CBF"/>
<circle cx="183" cy="159" r="3" fill="#648CBF"/>
<circle cx="195" cy="159" r="3" fill="#648CBF"/>
<circle cx="3" cy="171" r="3" fill="#648CBF"/>
<circle cx="15" cy="171" r="3" fill="#648CBF"/>
<circle cx="27" cy="171" r="3" fill="#648CBF"/>
<circle cx="39" cy="171" r="3" fill="#648CBF"/>
<circle cx="51" cy="171" r="3" fill="#648CBF"/>
<circle cx="63" cy="171" r="3" fill="#648CBF"/>
<circle cx="75" cy="171" r="3" fill="#648CBF"/>
<circle cx="87" cy="171" r="3" fill="#648CBF"/>
<circle cx="111" cy="171" r="3" fill="#648CBF"/>
<circle cx="123" cy="171" r="3" fill="#648CBF"/>
<circle cx="135" cy="171" r="3" fill="#648CBF"/>
<circle cx="147" cy="171" r="3" fill="#648CBF"/>
<circle cx="159" cy="171" r="3" fill="#648CBF"/>
<circle cx="171" cy="171" r="3" fill="#648CBF"/>
<circle cx="183" cy="171" r="3" fill="#648CBF"/>
<circle cx="195" cy="171" r="3" fill="#648CBF"/>
<circle cx="3" cy="183" r="3" fill="#648CBF"/>
<circle cx="15" cy="183" r="3" fill="#648CBF"/>
<circle cx="27" cy="183" r="3" fill="#648CBF"/>
<circle cx="39" cy="183" r="3" fill="#648CBF"/>
<circle cx="51" cy="183" r="3" fill="#648CBF"/>
<circle cx="63" cy="183" r="3" fill="#648CBF"/>
<circle cx="75" cy="183" r="3" fill="#648CBF"/>
<circle cx="87" cy="183" r="3" fill="#648CBF"/>
<circle cx="99" cy="183" r="3" fill="#648CBF"/>
<circle cx="123" cy="183" r="3" fill="#648CBF"/>
<circle cx="135" cy="183" r="3" fill="#648CBF"/>
<circle cx="147" cy="183" r="3" fill="#648CBF"/>
<circle cx="171" cy="183" r="3" fill="#648CBF"/>
<circle cx="183" cy="183" r="3" fill="#648CBF"/>
<circle cx="195" cy="183" r="3" fill="#648CBF"/>
<circle cx="3" cy="195" r="3" fill="#648CBF"/>
<circle cx="15" cy="195" r="3" fill="#648CBF"/>
<circle cx="27" cy="195" r="3" fill="#648CBF"/>
<circle cx="39" cy="195" r="3" fill="#648CBF"/>
<circle cx="51" cy="195" r="3" fill="#648CBF"/>
<circle cx="63" cy="195" r="3" fill="#648CBF"/>
<circle cx="75" cy="195" r="3" fill="#648CBF"/>
<circle cx="87" cy="195" r="3" fill="#648CBF"/>
<circle cx="99" cy="195" r="3" fill="#648CBF"/>
<circle cx="111" cy="195" r="3" fill="#648CBF"/>
<circle cx="135" cy="195" r="3" fill="#648CBF"/>
<circle cx="159" cy="195" r="3" fill="#648CBF"/>
<circle cx="171" cy="195" r="3" fill="#648CBF"/>
<circle cx="183" cy="195" r="3" fill="#648CBF"/>
<circle cx="195" cy="195" r="3" fill="#648CBF"/>
</g>
</mask>
<g mask="url(#mask0_47_1461)">
<path d="M141.711 50.2399L152.562 46.3399L157.987 52.58L166.125 53.3601L186.471 71.3L183.758 83L195.287 88.4601L198 104.06L182.402 114.2L178.333 127.46L166.804 122L157.987 132.14L148.493 151.64L147.136 164.9L160.7 183.62L153.24 196.88L130.181 200L111.192 179.72L88.8122 168.02L77.283 167.24L74.5703 151.64L70.5011 146.96L75.9265 125.9L63.041 130.58L59.6501 141.5L50.8338 146.18L35.9136 148.52L20.3154 146.18L16.9245 141.5L21.6717 130.58L16.9245 125.12L19.6372 112.64L8.78617 104.06L-15.6286 100.94L-21.7322 103.28L-25.8014 87.6801L-54.285 79.1L-57.676 63.5L-68.527 49.4601L-90.229 57.2601L-109.896 38.5399V29.18L-116 12.02L-81.4125 -7.48005L-49.5379 -20.7399L-47.5032 -10.6L-39.3651 -5.1399L-31.2268 -9.81995L-4.77755 -1.2399L16.9245 -12.9399L20.9936 -22.3L35.2354 -19.9601L33.8791 -26.98L43.3737 -32.4399L53.5465 -26.2L63.7193 -34L71.1794 -23.8601L88.134 -30.1L91.5249 -17.62L109.158 -6.7L122.043 -9.81995L133.572 0.319954L151.205 8.9L144.423 31.52L136.963 41.6601L141.711 50.2399Z" fill="#342858" stroke="black" stroke-width="0.1" stroke-linecap="round" stroke-linejoin="round"/>
</g>
<defs>
<clipPath id="clip0_47_1461">
<rect width="200" height="200" fill="white"/>
</clipPath>
</defs>
</svg>
